<svg width="20" height="20" viewBox="0 0 20 20" fill="none" xmlns="http://www.w3.org/2000/svg">
<path d="M3.29002 11.0983C3.21542 11.302 3.06433 11.4686 2.86887 11.5626C2.67341 11.6567 2.44897 11.6708 2.24326 11.602C2.03754 11.5332 1.86675 11.387 1.76718 11.1942C1.66761 11.0015 1.6471 10.7776 1.71002 10.57C1.69335 10.62 1.71002 10.5683 1.71002 10.5683C1.73974 10.4766 1.77423 10.3865 1.81335 10.2983C1.88002 10.14 1.97835 9.92167 2.11335 9.66333C2.38669 9.14667 2.81669 8.45833 3.44669 7.77C4.72502 6.37833 6.81335 5 10 5C13.1884 5 15.2767 6.37833 16.5517 7.77C17.2324 8.51651 17.7843 9.37092 18.185 10.2983C18.2184 10.3767 18.2434 10.44 18.26 10.4867C18.2667 10.5 18.2834 10.5867 18.3 10.67C18.315 10.7467 18.3284 10.82 18.3334 10.8333C18.3334 10.8333 18.4734 11.3883 17.7634 11.6233C17.5543 11.6932 17.326 11.6773 17.1286 11.5792C16.9312 11.4811 16.7807 11.3088 16.71 11.1V11.095L16.6984 11.0683C16.6146 10.8542 16.5189 10.645 16.4117 10.4417C16.1159 9.88262 15.7501 9.36346 15.3234 8.89667C14.3067 7.78833 12.645 6.66667 10 6.66667C7.35502 6.66667 5.69335 7.78833 4.67669 8.89667C4.12625 9.50012 3.67863 10.1898 3.35169 10.9383C3.33419 10.9813 3.31752 11.0247 3.30169 11.0683L3.29002 11.0983Z" fill="#4CBB5E"/>
<path d="M10 8.33337C9.11597 8.33337 8.26812 8.68456 7.643 9.30968C7.01788 9.93481 6.66669 10.7827 6.66669 11.6667C6.66669 12.5508 7.01788 13.3986 7.643 14.0237C8.26812 14.6489 9.11597 15 10 15C10.8841 15 11.7319 14.6489 12.357 14.0237C12.9822 13.3986 13.3334 12.5508 13.3334 11.6667C13.3334 10.7827 12.9822 9.93481 12.357 9.30968C11.7319 8.68456 10.8841 8.33337 10 8.33337ZM8.33335 11.6667C8.33335 11.2247 8.50895 10.8008 8.82151 10.4882C9.13407 10.1756 9.55799 10 10 10C10.442 10 10.866 10.1756 11.1785 10.4882C11.4911 10.8008 11.6667 11.2247 11.6667 11.6667C11.6667 12.1087 11.4911 12.5327 11.1785 12.8452C10.866 13.1578 10.442 13.3334 10 13.3334C9.55799 13.3334 9.13407 13.1578 8.82151 12.8452C8.50895 12.5327 8.33335 12.1087 8.33335 11.6667Z" fill="#4CBB5E"/>
</svg>
