<svg width="20" height="20" viewBox="0 0 20 20" fill="none" xmlns="http://www.w3.org/2000/svg">
<path d="M12.65 13.5338L17.6825 18.5676C17.7406 18.6257 17.8096 18.6718 17.8855 18.7032C17.9615 18.7347 18.0428 18.7508 18.125 18.7508C18.2072 18.7508 18.2886 18.7347 18.3645 18.7032C18.4404 18.6718 18.5094 18.6257 18.5675 18.5676C18.6256 18.5094 18.6717 18.4405 18.7032 18.3645C18.7346 18.2886 18.7508 18.2072 18.7508 18.1251C18.7508 18.0429 18.7346 17.9615 18.7032 17.8856C18.6717 17.8097 18.6256 17.7407 18.5675 17.6826L2.3175 1.43256C2.25939 1.37445 2.19041 1.32835 2.11448 1.2969C2.03856 1.26545 1.95718 1.24927 1.875 1.24927C1.79282 1.24927 1.71145 1.26545 1.63552 1.2969C1.5596 1.32835 1.49061 1.37445 1.4325 1.43256C1.37439 1.49067 1.3283 1.55965 1.29685 1.63558C1.2654 1.7115 1.24921 1.79288 1.24921 1.87506C1.24921 1.95724 1.2654 2.03861 1.29685 2.11454C1.3283 2.19046 1.37439 2.25945 1.4325 2.31756L5.47 6.35506C4.92048 6.74433 4.42602 7.206 4 7.72756C3.39675 8.46776 2.92453 9.30567 2.60375 10.2051C2.5775 10.2813 2.545 10.3863 2.545 10.3863L2.5225 10.4638C2.5225 10.4638 2.4275 11.0851 2.96625 11.2276C3.12637 11.2699 3.29675 11.2469 3.43995 11.1637C3.58315 11.0805 3.68747 10.9439 3.73 10.7838L3.73125 10.7801L3.74125 10.7488L3.785 10.6126C4.05745 9.85321 4.45688 9.14565 4.96625 8.52006C5.36669 8.02788 5.84058 7.60037 6.37125 7.25256L8.34375 9.22506C7.94571 9.47454 7.60903 9.81055 7.35876 10.2081C7.10849 10.6057 6.95107 11.0545 6.89821 11.5213C6.84535 11.9881 6.89841 12.4608 7.05344 12.9042C7.20847 13.3477 7.46148 13.7505 7.79366 14.0827C8.12583 14.4148 8.52863 14.6678 8.97208 14.8229C9.41553 14.9779 9.88822 15.031 10.355 14.9781C10.8218 14.9252 11.2707 14.7678 11.6682 14.5176C12.0658 14.2673 12.4018 13.9306 12.6513 13.5326L12.65 13.5338ZM11.725 12.6088C11.605 12.8913 11.4175 13.1401 11.179 13.3332C10.9404 13.5263 10.6581 13.6579 10.3568 13.7165C10.0555 13.775 9.74443 13.7587 9.45091 13.6689C9.1574 13.5792 8.8904 13.4187 8.67337 13.2017C8.45633 12.9847 8.2959 12.7177 8.20615 12.4241C8.11639 12.1306 8.10007 11.8196 8.15861 11.5183C8.21715 11.217 8.34876 10.9347 8.54188 10.6961C8.73501 10.4575 8.98374 10.27 9.26625 10.1501L11.7275 12.6101L11.725 12.6088ZM7.9 5.25006L8.9675 6.31756C9.2925 6.27381 9.63625 6.25006 10 6.25006C12.555 6.25006 14.1075 7.39006 15.035 8.52131C15.5445 9.14683 15.9439 9.85441 16.2163 10.6138C16.2375 10.6738 16.2513 10.7201 16.26 10.7501L16.27 10.7813V10.7851L16.2713 10.7863C16.3175 10.9423 16.4228 11.0741 16.5647 11.1537C16.7066 11.2333 16.8739 11.2545 17.0312 11.2126C17.1884 11.1708 17.3231 11.0693 17.4067 10.9297C17.4903 10.7901 17.5161 10.6234 17.4788 10.4651V10.4613L17.4775 10.4563L17.4725 10.4401C17.4508 10.3611 17.4258 10.2831 17.3975 10.2063C17.0767 9.30692 16.6045 8.46901 16.0013 7.72881C14.8813 6.36006 12.995 5.00006 10.0025 5.00006C9.23 5.00006 8.53125 5.09006 7.90125 5.24881L7.9 5.25006Z" fill="#4CBB5E" stroke="#4CBB5E" stroke-width="0.5"/>
</svg>
