<svg width="22" height="22" viewBox="0 0 22 22" fill="none" xmlns="http://www.w3.org/2000/svg">
<g clip-path="url(#clip0_2651_94)">
<path d="M4.82717 8.95125C5.25606 7.65366 6.08379 6.52466 7.19227 5.72531C8.30076 4.92597 9.63337 4.49711 11 4.49992C12.5492 4.49992 13.9498 5.04992 15.0498 5.95008L18.2508 2.75C16.3002 1.04958 13.8004 0 11 0C6.66417 0 2.9315 2.47317 1.13667 6.09583L4.82717 8.95125Z" fill="#EA4335"/>
<path d="M14.7033 16.5119C13.7042 17.1563 12.4355 17.5001 11 17.5001C9.63882 17.5029 8.31124 17.0774 7.20523 16.284C6.09921 15.4905 5.27079 14.3693 4.83726 13.079L1.13393 15.8904C2.04257 17.7295 3.44876 19.2769 5.19276 20.3569C6.93677 21.4369 8.9487 22.0061 11 22C13.6886 22 16.2571 21.0439 18.1812 19.25L14.7043 16.5119H14.7033Z" fill="#34A853"/>
<path d="M18.1812 19.25C20.1932 17.3727 21.4995 14.5787 21.4995 11C21.4995 10.3492 21.3996 9.64979 21.2502 8.99988H11V13.2505H16.8997C16.6091 14.6795 15.8272 15.786 14.7043 16.512L18.1812 19.25Z" fill="#4A90E2"/>
<path d="M4.83724 13.079C4.61298 12.4088 4.49906 11.7067 4.49991 11C4.49991 10.2832 4.61449 9.59474 4.82716 8.95124L1.13666 6.09583C0.381672 7.61995 -0.00752106 9.29913 -7.69093e-06 11C-7.69093e-06 12.76 0.407909 14.4192 1.13391 15.8904L4.83724 13.079Z" fill="#FBBC05"/>
</g>
<defs>
<clipPath id="clip0_2651_94">
<rect width="22" height="22" fill="white"/>
</clipPath>
</defs>
</svg>
